<svg id="Layer_1" xmlns="http://www.w3.org/2000/svg" viewBox="0 0 254 54"><style>.st0{display:none}.st1,.st2{fill-rule:evenodd;clip-rule:evenodd}.st1{display:inline;stroke:#00b900;stroke-width:4;stroke-miterlimit:10;fill:none}.st2{fill:#c43f2d}.st2,.st3{display:inline}.st4{fill-rule:evenodd;clip-rule:evenodd;fill:none;stroke:#00b900;stroke-width:4;stroke-miterlimit:10}.st5{fill:#00b900}.st6{display:inline}.st6,.st7,.st8{fill-rule:evenodd;clip-rule:evenodd;fill:#473c3b}.st8{fill:#c43f2d}</style><g class="st0"><path class="st2" d="M126.99 38.94c-3.31 0-6.31-1.35-8.48-3.52a11.965 11.965 0 0 1-3.52-8.48l-.01-4.01h4l.01 4.01c0 2.21.9 4.21 2.34 5.66a7.95 7.95 0 0 0 5.65 2.34c2.21 0 4.21-.9 5.66-2.34a7.973 7.973 0 0 0 2.34-5.66v-8.02h-12l-.01-3.99h16v12c0 3.31-1.34 6.32-3.51 8.49a11.882 11.882 0 0 1-8.47 3.52zm-23.03-13.37c0 .1.01.2.01.3v.06l.01.26v.09l.01.28v.56c.05 6.28 2.61 11.96 6.73 16.07 4.16 4.16 9.91 6.73 16.26 6.73 6.35 0 12.11-2.57 16.27-6.73s6.73-9.92 6.73-16.27V3.93h-27l-.01-3.99h31v12.8c1.11-1.8 2.43-3.39 3.92-4.87a26.905 26.905 0 0 1 19.09-7.92c7.45 0 14.2 3.02 19.09 7.91 2.52 2.52 4.54 5.53 5.91 8.88 1.37-3.35 3.39-6.36 5.91-8.87 4.89-4.89 11.64-7.92 19.09-7.92 7.45 0 14.2 3.02 19.09 7.91 4.88 4.88 7.9 11.62 7.91 19.07v5.01h-4v-5.01a22.967 22.967 0 0 0-6.74-16.24 22.922 22.922 0 0 0-16.26-6.73c-6.35 0-12.1 2.57-16.26 6.73a22.922 22.922 0 0 0-6.73 16.26c0 6.35 2.57 12.11 6.73 16.27s9.91 6.73 16.27 6.73h13v4h-13c-7.45 0-14.2-3.02-19.08-7.9a27.027 27.027 0 0 1-5.91-8.88 27.027 27.027 0 0 1-5.91 8.88c-4.89 4.88-11.64 7.91-19.09 7.91-7.45 0-14.2-3.02-19.08-7.91a27.027 27.027 0 0 1-5.91-8.88 27.027 27.027 0 0 1-5.91 8.88c-4.89 4.88-11.64 7.91-19.09 7.91-7.45 0-14.2-3.02-19.08-7.91a27.09 27.09 0 0 1-5.91-8.87 26.882 26.882 0 0 1-5.91 8.87c-4.89 4.88-11.64 7.91-19.09 7.91-7.45 0-14.2-3.02-19.08-7.91-1.49-1.49-2.82-3.09-3.93-4.9v12.8h-27c-7.45 0-14.21-3.04-19.09-7.92C3 41.12-.02 34.37-.02 26.93c0-7.45 3.02-14.2 7.91-19.08A26.931 26.931 0 0 1 26.98-.06h4v4h-4c-6.35 0-12.11 2.57-16.27 6.72-4.16 4.16-6.73 9.91-6.73 16.27s2.57 12.11 6.73 16.27 9.92 6.75 16.27 6.75h23l.02-23c0-4 .87-7.79 2.43-11.21 1.35-2.95 3.21-5.61 5.47-7.87C62.79 2.97 69.54-.05 77-.05c7.45 0 14.2 3.02 19.09 7.91 4.07 4.07 6.84 9.43 7.66 15.41l.02.18.02.17v.01l.02.18.02.14v.04l.02.18.01.13.01.06.02.17v.04l.02.22.01.13.02.25.01.08.02.3-.01.02zm-47.05-9.83c-1.07 1.92-1.88 4-2.36 6.21l-.04.17-.01.03c-.02.11-.04.21-.07.32l-.01.02-.03.17-.03.18-.02.16-.01.05-.03.16-.03.18-.02.14-.02.1-.02.12-.02.18v.02l-.01.11-.02.17-.01.06v.05l-.02.19-.01.09-.02.23v.04l-.02.22v.06l-.02.24v.07l-.01.25v.02l-.01.26v.06c-.03.2-.04.38-.04.56V27.57l.01.25v.04l.01.25v.03l.02.28v.01l.02.28v.02l.02.27v.04l.02.24v.05l.02.22.01.09v.01l.01.12v.03l.02.14.02.19v.06l.03.18.02.11.02.12.02.12.01.07.01.05.02.12v.01l.02.09v.02l.02.12.04.22.01.04.04.22.03.12c.2.94.46 1.85.77 2.74a22.86 22.86 0 0 0 5.45 8.67c4.16 4.16 9.91 6.73 16.27 6.73 6.35 0 12.1-2.57 16.26-6.73 4.12-4.13 6.69-9.82 6.73-16.1V26.64c0-.18-.01-.36-.01-.53v-.06l-.01-.27v-.01c-.01-.19-.02-.38-.04-.57v-.01c-.01-.09-.01-.19-.02-.28v-.01c-.02-.28-.05-.56-.09-.84v-.03c-.02-.19-.05-.37-.08-.55v-.01c-.76-4.95-3.09-9.37-6.47-12.75C89.1 6.52 83.35 3.95 77 3.95s-12.1 2.57-16.26 6.73c-1.5 1.5-2.79 3.2-3.83 5.06zM99 26.95c0 .17 0 .35-.01.52v.08l-.01.21v.05l-.01.23v.05l-.01.21V28.36l-.02.27c-.01.18-.03.35-.05.53v.02c-.19 1.86-.61 3.65-1.23 5.34a22.013 22.013 0 0 1-5.1 7.96c-3.98 3.98-9.48 6.45-15.55 6.45s-11.57-2.47-15.55-6.45a21.967 21.967 0 0 1-6.28-12.83v-.02l-.01-.12-.01-.12-.01-.12-.01-.12-.01-.12-.01-.12-.01-.07-.02-.18v-.04l-.01-.08-.01-.12v-.02l-.01-.09-.01-.21v-.09l-.01-.2v-.06l-.01-.2v-.08c0-.17-.01-.35-.01-.52V26.35l.01-.21v-.08l.01-.18V25.81l.01-.19v-.02l.01-.12.01-.17v-.07l.02-.19v-.01l.01-.13.01-.09.03-.29v-.04c.57-5.09 2.87-9.65 6.31-13.09C65.43 7.41 70.93 4.95 77 4.95c6.06 0 11.56 2.46 15.55 6.44 1.3 1.3 2.44 2.76 3.38 4.35 1.63 2.75 2.68 5.88 2.98 9.23v.02c.02.17.03.35.04.52v.06l.01.24v.03l.01.23v.06l.01.24v.31l.02.27zm-5.68 7.59c.74-1.59 1.25-3.3 1.5-5.09l.02-.12.02-.12.01-.12.01-.12.01-.12.01-.11v-.02l.01-.12.03-.32v-.05l.01-.1v-.02l.01-.13v-.12l.01-.13v-.08l.01-.17v-1.35l-.01-.12v-.04l-.01-.17-.01-.19v-.01l-.02-.19-.02-.17v-.04c-.35-3.55-1.73-6.79-3.83-9.43h.01c-.42-.53-.88-1.04-1.35-1.52-3.27-3.29-7.77-5.3-12.74-5.3-4.97 0-9.48 2.01-12.73 5.26a18.006 18.006 0 0 0-5.22 11.35v.01l-.03.44v.05l-.01.16v1.23c0 .14.01.28.02.41v.01l.03.45c.34 4.42 2.27 8.39 5.22 11.34 3.25 3.26 7.76 5.27 12.73 5.27 4.97 0 9.47-2.02 12.73-5.27a18.08 18.08 0 0 0 3.58-5.12zm-31.53 0c-.43-.86-.79-1.76-1.07-2.69l-.02-.05-.01-.03c-.1-.32-.18-.65-.26-.98v-.03l-.04-.16-.01-.03v-.03l-.04-.17v-.01l-.01-.06-.02-.12-.01-.03-.01-.04-.03-.16v-.03l-.03-.17v-.03l-.01-.04-.02-.12-.01-.05v-.02l-.03-.18v-.03c-.02-.13-.04-.26-.05-.39v-.02l-.02-.2-.01-.09-.01-.12-.01-.13-.01-.09v-.04l-.01-.16v-.05l-.01-.17v-.02l-.01-.2v-.03l-.02-.18V26.46l.01-.16v-.08l.01-.12v-.08l.01-.14.01-.08.01-.11.01-.1.01-.1.01-.12.01-.08.01-.11v-.02l.02-.16v-.01l.02-.2v-.01l.03-.19.03-.19v-.02l.03-.17.01-.04.03-.15V24l.03-.14.01-.06.02-.11.02-.09.02-.11.02-.09.02-.11.01-.06.03-.14v-.02l.03-.14v-.02l.04-.17.01-.02.04-.15.01-.05v-.01l.05-.19v-.01l.05-.18.01-.02.05-.16.06-.17v-.01l.05-.15.02-.05.05-.16v-.01l.06-.16.02-.05.05-.15.02-.04.05-.13.02-.04.06-.15.06-.15.01-.02.02-.06c.04-.1.08-.19.12-.29l.01-.01.07-.16.07-.15.01-.03.06-.12.03-.06.06-.12.02-.05.06-.13.02-.04.06-.12.04-.08.05-.09.04-.08c.08-.15.16-.3.25-.45l.09-.16c.12-.2.24-.4.37-.6l.05-.07.06-.09.03-.05.08-.12.03-.05.08-.11.02-.03.09-.13.02-.03.09-.12.02-.03c.07-.09.14-.19.21-.28l.11-.15.11-.14c.08-.1.16-.19.23-.28l.01-.01.11-.13.02-.02.1-.11.02-.02c.24-.28.5-.55.76-.81 3.08-3.08 7.33-4.98 12.02-4.98 4.69 0 8.94 1.91 12.02 4.98 2.5 2.5 4.23 5.79 4.79 9.45l.03.19.03.19.02.17v.03l.06.57v.02l.01.17v.03l.01.16v.07l.01.16v.01l.01.18v.06c0 .12.01.23.01.35V27.58l-.01.12v.01l-.01.11v.02l-.01.13-.01.12v.01l-.01.13-.01.12v.01l-.02.24v.01l-.01.12-.01.13v.01l-.01.08v.03l-.02.12-.01.09-.01.08-.01.07-.02.12v.02l-.01.09v.01l-.02.12c-.03.16-.06.32-.09.49l-.02.12-.02.12-.03.12-.03.12c-.03.12-.06.24-.08.36l-.03.12v.01l-.03.1v.01l-.03.12c-.04.16-.09.31-.13.47l-.04.12c-.07.23-.15.46-.23.69-.07.19-.14.38-.21.56l-.05.11c-.04.11-.09.21-.13.32l-.01.03c-.08.18-.16.36-.24.53v.01c-.84 1.77-1.98 3.37-3.34 4.74-3.08 3.08-7.33 4.99-12.02 4.99-4.69 0-8.94-1.91-12.01-4.98-1.31-1.31-2.4-2.8-3.22-4.44zm8.61-18.8c-.95.56-1.82 1.24-2.6 2.02a12.94 12.94 0 0 0-3.22 5.33l-.05.15-.04.15-.04.15-.04.15-.04.16-.04.16-.04.16-.03.16-.03.16-.03.16-.03.16-.03.16-.02.16-.02.16-.02.16-.02.16-.01.16-.01.17-.01.17-.01.17-.01.17v1.05l.01.13v.02l.01.15v.02l.01.12V28l.01.14v.02l.01.13v.02l.01.11.01.05.01.08.01.09v.04l.02.12v.01l.02.13v.03l.02.1v.01l.02.11v.01l.02.09.01.03.02.13.02.12.01.04v.02l.02.11.01.03.01.06.02.1.03.13v.03l.01.04.03.11v.01l.02.08.02.08.01.05.03.11v.01l.04.12v.02l.03.1.02.05.02.07.03.08v.01l.04.12.01.02v.01l.04.12.01.03.03.09v.01l.03.09.02.04.04.09.04.12.05.11.01.03.03.08.03.06.01.02.04.09.01.03.01.02.05.11v.01l.05.1.02.04.01.02.05.1.01.02.02.04.02.04.03.07.06.11.01.02.05.09.01.02.04.07.03.05c.07.13.14.26.21.38l.02.04.04.07.02.04.05.08.07.11.06.1.02.03.05.07.04.06.03.04.06.09.01.02.07.1.01.01.06.09.01.01.06.08c.41.57.87 1.11 1.37 1.61 2.35 2.35 5.6 3.8 9.2 3.8 3.59 0 6.84-1.46 9.19-3.81a12.83 12.83 0 0 0 3.12-5.02l.06-.12.01-.04.01-.02c.04-.14.09-.28.13-.42v-.02c.03-.1.05-.19.08-.29l.01-.02.04-.15v-.01l.04-.15.02-.1.01-.06v-.02l.02-.11v-.02l.01-.04.02-.12.02-.13.01-.03.02-.09.01-.07.01-.06.02-.1v-.03l.02-.13v-.01l.02-.12v-.04l.01-.09.01-.08.01-.05.01-.11v-.02l.01-.13v-.02l.01-.14v-.06l.01-.12v-.02l.01-.15v-.02l.01-.13v-1.05l-.01-.17-.01-.17-.01-.17-.01-.17-.02-.16-.02-.16-.02-.16-.02-.16-.02-.16-.03-.16-.03-.16-.03-.16-.03-.16-.03-.16-.04-.16-.04-.16-.04-.16-.04-.15-.04-.15-.05-.15-.05-.15-.05-.15-.05-.15-.05-.15-.05-.15-.06-.15-.06-.15L89 22l-.06-.15-.06-.15-.07-.15-.07-.14-.07-.14-.07-.14-.07-.14-.07-.14-.07-.14-.08-.14-.08-.14-.08-.13-.08-.13-.08-.13-.08-.13-.09-.13-.09-.13-.09-.13-.09-.13-.09-.13-.09-.13-.09-.12-.1-.12-.1-.12-.1-.12-.1-.12-.1-.12-.1-.12-.1-.12-.11-.11-.11-.11-.11-.11-.11-.11-.07-.07-.04-.04-.11-.1a12.967 12.967 0 0 0-8.97-3.59c-2.36.02-4.61.67-6.55 1.81zm9.12 18.8l.17-.06.06-.02h.01l.05-.02.16-.06.05-.02.05-.02c.14-.06.29-.12.43-.19l.05-.03.05-.02.15-.08.05-.03.05-.03c.08-.05.17-.09.25-.14l.04-.02.01-.01.05-.03.05-.03.05-.03.04-.03.05-.03.05-.03.02-.01.03-.02.05-.03.04-.03h.01l.04-.03.05-.03.02-.01.03-.02.05-.04.09-.07.04-.04.05-.04.04-.04.04-.04.03-.02.01-.01.05-.04.02-.01.03-.02.08-.07.03-.03.01-.01.04-.04.04-.04.04-.04.04-.04.03-.03.01-.01.04-.04.01-.01.03-.03.04-.04.07-.07.07-.07.06-.07.07-.07.06-.07.06-.07.06-.07.06-.07.06-.07.06-.08.06-.08.06-.08.06-.08.06-.08.05-.08.05-.08.05-.08.05-.08.05-.08.05-.08.05-.08.05-.08.05-.08.05-.09.04-.09.05-.09.04-.09.04-.09.04-.09.04-.09.04-.09.04-.09.04-.09.04-.09.04-.09.03-.09.03-.09.03-.09.03-.09.03-.09.03-.09.03-.09.03-.1.03-.1.02-.1.02-.1.02-.1.02-.1.02-.1.02-.1.02-.1.02-.1.01-.1.01-.1.01-.1.01-.1.01-.1.01-.1.01-.1.01-.1V26.57l-.01-.1-.01-.1-.01-.1-.01-.1-.01-.1-.01-.1-.01-.1-.01-.1-.02-.1-.02-.1-.02-.1-.02-.1-.02-.1-.02-.1-.02-.1-.02-.1-.03-.1-.03-.1-.03-.09-.03-.09-.03-.09-.03-.09-.03-.09-.03-.09-.03-.09-.04-.09-.04-.09-.04-.09-.04-.09-.04-.09-.04-.09-.04-.09-.04-.09-.04-.09-.05-.09-.04-.08-.05-.09-.05-.08-.05-.08-.05-.08-.05-.08-.05-.08-.05-.08-.05-.08-.05-.08-.05-.08-.06-.08-.06-.08-.06-.08-.06-.08-.06-.07-.06-.07-.06-.07-.06-.07-.06-.07-.06-.07-.07-.07-.06-.07-.07-.07-.07-.07-.07-.07-.07-.07-.07-.07-.07-.06-.07-.06-.07-.06-.07-.06-.07-.06-.07-.06-.08-.06-.08-.06-.08-.06-.08-.06-.08-.06-.08-.06-.08-.05-.08-.05-.08-.05-.08-.05-.08-.05-.08-.05-.08-.05-.08-.05-.08-.05-.08-.05-.08-.04-.09-.04-.09-.04-.09-.04-.09-.04-.09-.04-.09-.04-.09-.04-.09-.04-.09-.04-.09-.03-.09-.03-.09-.03-.09-.03-.09-.03-.09-.03-.09-.03-.09-.03-.1-.06-.09-.02-.1-.02-.1-.02-.1-.02-.1-.02-.1-.02-.1-.02-.1-.02-.1-.01-.1-.01-.09-.02-.1-.01-.1-.01-.1-.01-.1-.01-.1-.01h-.7c-.31.01-.61.04-.91.09-.13.02-.26.04-.39.07-.2.04-.39.09-.58.14-.09.03-.19.06-.28.09-.12.04-.25.08-.37.13-.15.06-.3.12-.45.19-.12.05-.23.11-.35.17l-.09.04c-.06.03-.11.06-.17.09-.22.13-.44.26-.65.41l-.08.06c-.05.04-.1.07-.15.11l-.08.06-.08.06-.07.06-.07.06-.07.06-.07.06c-.07.06-.14.13-.21.19-.05.04-.09.09-.14.13l-.07.07-.07.07-.07.07-.07.07-.06.07-.06.07-.06.07-.06.07-.06.07-.06.07-.06.07-.06.08-.06.08-.06.08-.06.08-.06.08-.05.08-.05.08-.05.08-.05.08-.05.08-.05.08-.05.08-.05.08-.05.09-.05.08-.04.09-.04.09-.04.09-.04.09-.04.09-.04.09-.04.09-.04.09-.04.09-.04.09-.03.09-.03.09-.03.09-.03.09-.03.09-.03.09-.03.09-.03.1-.03.1-.02.1-.02.1-.02.1-.02.1-.02.1-.02.1-.02.1-.02.1-.01.1-.01.1-.01.1-.01.1-.01.1-.01.1-.01.1-.01.1v.4c0 2.21.9 4.21 2.34 5.66l.04.04.03.03.01.01.04.04.01.01.07.07.04.04.03.03.02.01.04.04.01.01.03.03.04.04.04.04.03.02.02.01.04.04.01.01.03.02.04.04.05.04.03.02.02.01.05.04.01.01.03.02.04.03.05.04.03.02.02.01.05.03.01.01.03.02.05.03.05.03.03.02.07.04.01.01.08.05.05.03.03.02c.05.03.11.07.17.1l.08.05.02.01.05.03.01.01.08.04.16.08.01.01.04.02.1.05.03.02.07.04.01.01.09.04.05.02.03.01.02.01.05.02h.01l.09.04.08.03.02.01.05.02.01.01.04.02.05.02.09.03.02.01.06.02h.01l.04.01c.79.26 1.64.41 2.52.41.92.04 1.77-.1 2.56-.36zm-14.36-5.62c-.02-.09-.03-.19-.04-.28l-.01-.04c-.03-.19-.05-.38-.07-.58v-.01l-.01-.13v-.01c-.02-.3-.04-.61-.04-.92V26.49l.01-.15.01-.15.01-.15.01-.15.02-.15.02-.15.02-.15.02-.15.02-.15.02-.15.03-.15.03-.15.03-.15.03-.15.03-.15.03-.14.04-.14.04-.14.04-.14.04-.14.04-.14.04-.14.05-.14.05-.14.05-.14.05-.14.05-.14.05-.14.06-.14.07-.14.06-.13.06-.13.06-.13.06-.13.07-.13.07-.13.07-.13.07-.13.07-.13.07-.13.07-.12.08-.12.08-.12.08-.12.08-.12.08-.12.08-.12.08-.12.09-.12.09-.11.09-.11.09-.11.09-.11.09-.11.09-.11.09-.11.1-.11.1-.11.1-.1.1-.1.1-.1.1-.1.01-.01.06-.05.04-.04.02-.02.06-.05.03-.03.03-.03.06-.05.02-.02.1-.09.01-.01.05-.04.06-.05.06-.05.05-.04.01-.01.1-.09.02-.01.06-.05.03-.03.03-.02c.07-.05.13-.11.2-.16l.05-.04.06-.05.06-.04.06-.04h.01l.04-.05.05-.03.02-.01.1-.07.03-.02.09-.07.04-.03.07-.04.02-.01.02-.01.1-.06h.01l.12-.08.07-.04.05-.03.02-.01c.11-.07.23-.13.34-.2l.02-.01.12-.06h.01l.13-.07.12-.06h.01l.01-.01c.07-.04.14-.07.21-.11l.04-.02.11-.05.02-.01.27-.12.13-.06h.01c.07-.03.15-.06.22-.09l.04-.02.04-.01.07-.03c1.33-.51 2.78-.79 4.29-.79 1.51 0 2.96.28 4.29.79l.07.03.22.09.07.03c.07.03.14.06.22.09l.06.03h.01l.07.03.07.03.07.03.07.03.07.03.07.04.07.04.07.04.07.04.07.04.07.04.07.04.07.04.07.04.04.02.02-.01.07.04.03.02.04.02.07.04.07.04.07.04.06.04.06.04h.01l.07.04.13.09.02.04.03.02.07.04.03.02.04.03.06.04.02.01.05.03.06.05h.01l.06.04.06.04.06.05.05.04.01.01.06.05.04.03.02.02.06.05.03.02.03.03.06.05.02.01.04.04.06.05.01.01.05.04.06.05.06.05.05.04.01.01.1.09.02.02.06.05.03.03.03.03.06.05.02.02.04.04.06.05.01.01.1.1.1.1.1.1.1.1.1.11.1.11.09.11.09.11.09.11.09.11.09.11.09.11.09.11.09.12.06.13.08.12.08.12.08.12.08.12.08.12.08.12.07.12.07.13.07.13.07.13.07.13.07.13.07.13.06.13.06.13.06.13.06.13.06.13.06.14.05.14.05.14.05.14.05.14.05.14.05.14.04.14.04.14.04.14.04.14.04.14.04.14.03.14.03.15.03.15.03.15.03.15.03.15.02.15.02.15.02.15.02.15.02.15.01.15.01.15.01.15.01.15.01.15v1.12l-.01.1v.03l-.01.12v.01l-.01.13V28.05l-.01.11-.01.1-.01.05v.02l-.01.11v.02l-.01.06v.02l-.02.11-.01.1v.02l-.02.12v.01l-.02.13-.02.09-.01.04-.01.03-.02.09-.03.12-.02.1-.01.05c-.02.07-.03.15-.05.22l-.03.13-.03.12-.01.02-.03.11c-.02.08-.05.15-.07.23l-.01.03-.03.1v.01c-.02.08-.05.15-.07.23v.01l-.04.12c-.03.07-.05.15-.08.22l-.01.02c-.13.35-.28.7-.45 1.04l-.01.01-.05.1-.01.02a12.04 12.04 0 0 1-2.24 3.09 11.965 11.965 0 0 1-8.48 3.52 11.965 11.965 0 0 1-9.44-4.61l-.08-.1c-.28-.36-.54-.74-.77-1.14v-.01l-.05-.09-.01-.01-.04-.08-.02-.03-.05-.09-.01-.02-.06-.11-.06-.11-.01-.02-.05-.1-.02-.03-.04-.08-.01-.02-.05-.09-.01-.01-.05-.11v-.01l-.05-.11-.05-.1v-.01l-.08-.06v-.01l-.05-.11-.01-.02-.04-.09-.02-.04-.03-.08-.02-.06-.02-.06-.03-.08-.02-.04-.04-.1-.01-.02-.04-.11v-.01l-.04-.12v-.01l-.04-.11-.03-.08-.02-.08-.01-.03-.03-.11-.01-.02-.02-.06-.02-.09-.01-.04-.03-.11v-.02l-.03-.12-.03-.13-.01-.02-.03-.11-.01-.04-.01-.02-.03-.12v-.01l-.02-.11-.01-.03-.01-.05-.02-.09-.02-.13v-.02l-.02-.12zm95.56 14.29c4.16 4.16 9.91 6.73 16.26 6.73 6.35 0 12.1-2.57 16.26-6.73 4.16-4.16 6.73-9.92 6.73-16.27s-2.57-12.1-6.74-16.26a22.922 22.922 0 0 0-16.26-6.73c-6.35 0-12.1 2.57-16.26 6.73a22.93 22.93 0 0 0-6.74 16.26c.02 6.36 2.59 12.11 6.75 16.27zm16.26 5.73c-6.07 0-11.57-2.47-15.55-6.45-3.98-3.98-6.45-9.48-6.45-15.55s2.47-11.57 6.45-15.55c3.99-3.98 9.49-6.44 15.55-6.44 6.06 0 11.56 2.46 15.55 6.44 3.99 3.99 6.45 9.49 6.45 15.55 0 6.06-2.47 11.57-6.45 15.55a21.857 21.857 0 0 1-15.55 6.45zm-12.72-9.27c3.26 3.26 7.76 5.27 12.73 5.27 4.97 0 9.47-2.02 12.73-5.27 3.26-3.25 5.27-7.75 5.27-12.73s-2.01-9.48-5.26-12.73A17.941 17.941 0 0 0 177 8.94c-4.97 0-9.48 2.01-12.73 5.26A17.983 17.983 0 0 0 159 26.93c-.01 4.98 2 9.49 5.26 12.74zm12.72 4.27c-4.69 0-8.94-1.91-12.01-4.98-3.08-3.08-4.99-7.33-4.99-12.02 0-4.69 1.9-8.94 4.98-12.02 3.08-3.08 7.33-4.98 12.02-4.98 4.69 0 8.94 1.91 12.02 4.98 3.08 3.07 4.98 7.33 4.98 12.02 0 4.69-1.9 8.94-4.98 12.01a16.877 16.877 0 0 1-12.02 4.99zm-9.19-7.8c2.35 2.35 5.6 3.8 9.2 3.8 3.59 0 6.84-1.46 9.19-3.81 2.35-2.35 3.81-5.6 3.81-9.19s-1.46-6.84-3.81-9.19c-2.35-2.35-5.6-3.81-9.19-3.81s-6.84 1.46-9.2 3.8c-2.35 2.35-3.8 5.61-3.8 9.2 0 3.6 1.45 6.85 3.8 9.2zm9.19 2.8c-3.31 0-6.31-1.35-8.48-3.52s-3.52-5.17-3.52-8.48c0-3.31 1.35-6.31 3.52-8.48 2.17-2.17 5.17-3.52 8.48-3.52 3.31 0 6.31 1.35 8.48 3.52 2.17 2.17 3.52 5.17 3.52 8.48 0 3.31-1.35 6.31-3.52 8.48a11.888 11.888 0 0 1-8.48 3.52zm-5.65-6.34a7.973 7.973 0 0 0 5.66 2.34c2.21 0 4.21-.9 5.66-2.34a7.973 7.973 0 0 0 2.34-5.66c0-2.21-.9-4.21-2.34-5.66a7.973 7.973 0 0 0-5.66-2.34c-2.21 0-4.21.9-5.66 2.34a7.973 7.973 0 0 0-2.34 5.66c0 2.21.89 4.21 2.34 5.66zm77.65-4.68v-1a21.946 21.946 0 0 0-6.45-15.53c-3.99-3.98-9.48-6.44-15.55-6.44-6.06 0-11.57 2.46-15.55 6.44-3.98 3.98-6.45 9.48-6.45 15.55s2.46 11.57 6.45 15.55c3.98 3.98 9.48 6.44 15.55 6.44h13v-3.99l-13-.01c-4.97 0-9.47-2.01-12.73-5.27a17.965 17.965 0 0 1-5.27-12.73c0-4.97 2.02-9.47 5.27-12.73a17.94 17.94 0 0 1 12.73-5.26c4.98 0 9.47 2.01 12.73 5.27a17.91 17.91 0 0 1 5.26 12.71v1.01h-24.9c.22 1.54.95 2.94 2 4h26.9l.01-4.01zm-22 16.02c-4.69 0-8.94-1.9-12.01-4.97-3.08-3.08-4.99-7.33-4.99-12.02 0-4.69 1.91-8.94 4.98-12.02 3.08-3.08 7.33-4.98 12.02-4.98 4.69 0 8.94 1.91 12.02 4.98 3.07 3.07 4.98 7.33 4.98 12.01h-24c0-1.49.47-2.86 1.26-3.99h18.12a12.92 12.92 0 0 0-3.18-5.19c-2.35-2.35-5.6-3.81-9.19-3.81s-6.84 1.46-9.2 3.8c-2.35 2.35-3.8 5.61-3.8 9.2 0 3.59 1.45 6.84 3.8 9.19 2.35 2.35 5.6 3.8 9.2 3.8h13v4h-13.01zm0-5c-3.31 0-6.31-1.34-8.48-3.51a11.965 11.965 0 0 1-3.52-8.48c0-3.31 1.35-6.31 3.52-8.48 2.17-2.17 5.17-3.52 8.48-3.52 3.31 0 6.31 1.35 8.48 3.52 1 1 1.82 2.18 2.42 3.47h-4.7c-.18-.22-.34-.45-.54-.65a7.973 7.973 0 0 0-5.66-2.34c-2.21 0-4.21.9-5.66 2.34a7.973 7.973 0 0 0-2.34 5.66c0 2.21.9 4.21 2.34 5.66a7.973 7.973 0 0 0 5.66 2.34h13v3.99h-13zm-200-30.01l4 .01v-4h-4c-6.07 0-11.58 2.46-15.56 6.44-3.98 3.98-6.44 9.48-6.44 15.55s2.47 11.57 6.45 15.55c3.99 3.98 9.49 6.45 15.55 6.45l22 .01v-26h-4v22h-18c-4.97 0-9.48-2.03-12.73-5.28a17.983 17.983 0 0 1-5.27-12.73c0-4.97 2.01-9.47 5.27-12.73s7.76-5.27 12.73-5.27zm0 5l4 .01v-4h-4c-4.69 0-8.94 1.9-12.02 4.98a16.939 16.939 0 0 0-4.98 12.01c0 4.69 1.91 8.94 4.99 12.02 3.08 3.07 7.33 4.98 12.01 4.98l17 .01v-21h-4v17h-13c-3.59 0-6.85-1.47-9.2-3.82-2.35-2.35-3.81-5.6-3.81-9.19s1.45-6.84 3.8-9.2c2.36-2.35 5.62-3.8 9.21-3.8zm0 4.99l4 .01v-4h-4c-3.31 0-6.32 1.34-8.49 3.51a11.965 11.965 0 0 0-3.52 8.48c0 3.31 1.35 6.31 3.52 8.48 2.17 2.17 5.17 3.52 8.48 3.52l12 .01v-16h-4v12h-8a7.99 7.99 0 0 1-5.66-2.36 8.014 8.014 0 0 1 0-11.32 8.133 8.133 0 0 1 5.67-2.33zm82 8.02v-4h-4l.01 4.01c0 6.07 2.46 11.57 6.45 15.55 3.98 3.98 9.48 6.45 15.55 6.45s11.57-2.47 15.55-6.45c3.98-3.98 6.45-9.49 6.45-15.55V8.92l-.01-3.99h-26v4h22l.01 18.01c0 4.97-2.01 9.47-5.27 12.73a17.906 17.906 0 0 1-12.73 5.27c-4.97 0-9.47-2.02-12.73-5.27a17.974 17.974 0 0 1-5.28-12.73zm5 0v-4h-4l.01 4.01c0 4.69 1.91 8.94 4.99 12.02 3.08 3.07 7.33 4.98 12.01 4.98 4.69 0 8.94-1.91 12.02-4.99 3.07-3.08 4.98-7.33 4.98-12.01V9.94h-21l.01 3.99h17v13.02c0 3.59-1.46 6.84-3.81 9.19-2.35 2.35-5.6 3.81-9.19 3.81s-6.84-1.45-9.19-3.8a13.002 13.002 0 0 1-3.83-9.21zM94 26.95zm-24.5-9.38c.07-.05.13-.11.2-.16l-.2.16z"/></g><g class="st0"><g class="st3"><circle class="st4" cx="77" cy="27" r="10"/><circle class="st4" cx="77" cy="27" r="15"/><circle class="st4" cx="77" cy="27" r="20"/><circle class="st4" cx="77" cy="27" r="25"/></g><g class="st3"><circle class="st4" cx="177" cy="27" r="10"/><circle class="st4" cx="177" cy="27" r="15"/><circle class="st4" cx="177" cy="27" r="20"/><circle class="st4" cx="177" cy="27" r="25"/></g><g class="st3"><path class="st5" d="M237.91 22h-4.68c-1.46-1.83-3.71-3-6.23-3-4.41 0-8 3.59-8 8s3.59 8 8 8v4c-6.62 0-12-5.38-12-12s5.38-12 12-12c4.84 0 9.01 2.87 10.91 7z"/></g><path class="st1" d="M242 27c0-8.28-6.72-15-15-15s-15 6.72-15 15 6.72 15 15 15"/><path class="st1" d="M247 27c0-11.05-8.95-20-20-20s-20 8.95-20 20 8.95 20 20 20"/><path class="st1" d="M252 27c0-13.81-11.19-25-25-25s-25 11.19-25 25 11.19 25 25 25"/><path class="st6" d="M35 23h4v16h-4zM40 23h4v21h-4zM45 23h4v26h-4zM50 23h4v30h-4z"/><path transform="rotate(90 33 37)" class="st6" d="M31 31h4v12h-4z"/><path transform="rotate(90 29 17)" class="st6" d="M27 15h4v4h-4z"/><path transform="rotate(90 29 12)" class="st6" d="M27 10h4v4h-4z"/><path transform="rotate(90 29 7)" class="st6" d="M27 5h4v4h-4z"/><path transform="rotate(90 29 2)" class="st6" d="M27 0h4v4h-4z"/><path transform="rotate(90 35.5 42)" class="st6" d="M33.5 33.5h4v17h-4z"/><path transform="rotate(90 38 47)" class="st6" d="M36 36h4v22h-4z"/><path transform="rotate(90 40 52)" class="st6" d="M38 38h4v28h-4z"/><path class="st1" d="M27 17c-5.52 0-10 4.48-10 10s4.48 10 10 10"/><path class="st1" d="M27 12c-8.28 0-15 6.72-15 15s6.72 15 15 15"/><path class="st1" d="M27 7C15.95 7 7 15.95 7 27s8.95 20 20 20"/><path class="st1" d="M27 2C13.19 2 2 13.19 2 27s11.19 25 25 25"/><g class="st3"><path transform="rotate(-90 131 17)" class="st7" d="M129 9h4v16h-4z"/><path transform="rotate(-90 133.5 12)" class="st7" d="M131.5 1.5h4v21h-4z"/><path transform="rotate(-90 136 7)" class="st7" d="M134-6h4v26h-4z"/><path transform="rotate(-90 138 2)" class="st7" d="M136-13h4v30h-4z"/><path class="st7" d="M135 15h4v12h-4zM115 23h4v4h-4zM110 23h4v4h-4zM105 23h4v4h-4zM100 23h4v4h-4zM140 10h4v17h-4zM145 5h4v22h-4zM150 0h4v28h-4z"/><path class="st4" d="M117 27c0 5.52 4.48 10 10 10s10-4.48 10-10"/><path class="st4" d="M112 27c0 8.28 6.72 15 15 15s15-6.72 15-15"/><path class="st4" d="M107 27c0 11.05 8.95 20 20 20s20-8.95 20-20"/><path class="st4" d="M102 27c0 13.81 11.19 25 25 25s25-11.19 25-25"/></g><path class="st6" d="M243 23v4h-23c0-1.49.46-2.87 1.26-4H243zM249 28v4h-26.89a6.822 6.822 0 0 1-2.03-4H249zM226 35h14v4h-14zM226 40h14v4h-14zM226 45h14v4h-14zM226 50h14v4h-14z"/><path class="st6" d="M245 27h4v5h-4zM250 27h4v5h-4z"/></g><path class="st8" d="M77 15c-6.62 0-12 5.38-12 12s5.38 12 12 12 12-5.38 12-12-5.38-12-12-12zm0 20c-4.41 0-8-3.59-8-8s3.59-8 8-8 8 3.59 8 8-3.59 8-8 8z"/><path class="st8" d="M77 10c-9.37 0-17 7.63-17 17s7.63 17 17 17 17-7.63 17-17-7.63-17-17-17zm0 30c-7.17 0-13-5.83-13-13s5.83-13 13-13 13 5.83 13 13-5.83 13-13 13z"/><path class="st8" d="M77 5c-12.13 0-22 9.87-22 22s9.87 22 22 22 22-9.87 22-22S89.13 5 77 5zm0 40c-9.93 0-18-8.08-18-18 0-9.93 8.07-18 18-18s18 8.07 18 18c0 9.92-8.07 18-18 18zM177 15c-6.62 0-12 5.38-12 12s5.38 12 12 12 12-5.38 12-12-5.38-12-12-12zm0 20c-4.41 0-8-3.59-8-8s3.59-8 8-8 8 3.59 8 8-3.59 8-8 8z"/><path class="st8" d="M177 10c-9.37 0-17 7.63-17 17s7.63 17 17 17 17-7.63 17-17-7.63-17-17-17zm0 30c-7.17 0-13-5.83-13-13s5.83-13 13-13 13 5.83 13 13-5.83 13-13 13z"/><path class="st8" d="M177 5c-12.13 0-22 9.87-22 22s9.87 22 22 22 22-9.87 22-22-9.87-22-22-22zm0 40c-9.92 0-18-8.08-18-18 0-9.93 8.08-18 18-18s18 8.07 18 18c0 9.92-8.08 18-18 18zM219 27c0-4.41 3.59-8 8-8 2.52 0 4.77 1.17 6.23 3h4.68c-1.9-4.13-6.07-7-10.91-7-6.62 0-12 5.38-12 12s5.38 12 12 12h13v-4h-13c-4.41 0-8-3.59-8-8z"/><path class="st8" d="M214 27c0-7.17 5.83-13 13-13 5.77 0 10.67 3.78 12.36 9h-18.1a6.89 6.89 0 0 0-1.26 4h24c0-9.37-7.63-17-17-17s-17 7.63-17 17 7.63 17 17 17h13v-4h-13c-7.17 0-13-5.83-13-13z"/><path class="st8" d="M227 5c-12.13 0-22 9.87-22 22s9.87 22 22 22h13v-4h-13c-9.92 0-18-8.08-18-18 0-9.93 8.08-18 18-18s18 8.07 18 18v1h-24.92c.21 1.56.95 2.96 2.03 4H249v-5c0-12.13-9.87-22-22-22z"/><path class="st8" d="M227 0c-11.29 0-20.97 6.96-25 16.82C197.97 6.96 188.29 0 177 0c-9.71 0-18.24 5.16-23 12.88V0h-31v4h27v23c0 12.68-10.32 23-23 23s-23-10.32-23-23c0-14.89-12.11-27-27-27S50 12.11 50 27v23H27C14.32 50 4 39.68 4 27S14.32 4 27 4h4V0h-4C12.11 0 0 12.11 0 27s12.11 27 27 27h27V41.12C58.76 48.84 67.29 54 77 54c11.29 0 20.97-6.96 25-16.82C106.03 47.04 115.71 54 127 54s20.97-6.96 25-16.82C156.03 47.04 165.71 54 177 54s20.97-6.96 25-16.82C206.03 47.04 215.71 54 227 54h13v-4h-13c-12.68 0-23-10.32-23-23s10.32-23 23-23 23 10.32 23 23v5h4v-5c0-14.89-12.11-27-27-27zM77 50c-12.68 0-23-10.32-23-23S64.32 4 77 4s23 10.32 23 23-10.32 23-23 23zm100 0c-12.68 0-23-10.32-23-23s10.32-23 23-23 23 10.32 23 23-10.32 23-23 23z"/><path class="st8" d="M27 35c-4.41 0-8-3.59-8-8s3.59-8 8-8h4v-4h-4c-6.62 0-12 5.38-12 12s5.38 12 12 12h12V23h-4v12h-8z"/><path class="st8" d="M27 40c-7.17 0-13-5.83-13-13s5.83-13 13-13h4v-4h-4c-9.37 0-17 7.63-17 17s7.63 17 17 17h17V23h-4v17H27z"/><path class="st8" d="M27 45c-9.93 0-18-8.08-18-18 0-9.93 8.07-18 18-18h4V5h-4C14.87 5 5 14.87 5 27s9.87 22 22 22h22V23h-4v22H27zM127 39c6.62 0 12-5.38 12-12V15h-16v4h12v8c0 4.41-3.59 8-8 8s-8-3.59-8-8v-4h-4v4c0 6.62 5.38 12 12 12z"/><path class="st8" d="M127 44c9.37 0 17-7.63 17-17V10h-21v4h17v13c0 7.17-5.83 13-13 13s-13-5.83-13-13v-4h-4v4c0 9.37 7.63 17 17 17z"/><path class="st8" d="M127 49c12.13 0 22-9.87 22-22V5h-26v4h22v18c0 9.92-8.08 18-18 18-9.93 0-18-8.08-18-18v-4h-4v4c0 12.13 9.87 22 22 22z"/></svg>