<svg aria-hidden="true" style="position: absolute; width: 0; height: 0; overflow: hidden;" version="1.1" xmlns="http://www.w3.org/2000/svg" xmlns:xlink="http://www.w3.org/1999/xlink">
<defs>
<symbol id="icon-envelope" viewBox="0 0 32 32">
<title>envelope</title>
<path d="M29 4h-26c-1.657 0-3 1.343-3 3v18c0 1.656 1.343 3 3 3h26c1.657 0 3-1.344 3-3v-18c0-1.657-1.343-3-3-3zM2.741 25.99l-0.731-0.732 8.249-8.248 0.731 0.732-8.249 8.248zM29.259 25.99l-8.249-8.248 0.731-0.732 8.249 8.248-0.731 0.732zM17 19.325v0.675h-2v-0.675l-12.997-12.050 1.272-1.272 12.725 11.798 12.725-11.798 1.272 1.272-12.997 12.050z"></path>
</symbol>
<symbol id="icon-cycle" viewBox="0 0 36 32">
<title>cycle</title>
<path d="M24.349 29.852c-1.206-1.29-1.954-3.022-1.979-4.927l-0-0.005c-0-0.015-0-0.033-0-0.051 0-1.762 0.752-3.348 1.953-4.455l0.004-0.004c0.451-0.415 0.966-0.771 1.527-1.048l0.038-0.017-0.472-1.329-5.388 5.794-0.991-1.107 3.931-4.893-2.185 0.203v-1.893h4.079l-0.985-1.874h-4.198l-2.592-1.993-2.541 2.508 5.133 3.174-3.070 9.417-1.822-1.303 1.155-6.92-8.074-4.035 8.324-9.519 5.029 6.030 5.434 0.25-0.983 0.963 1.988 5.946c0.401-0.078 0.862-0.122 1.333-0.122 0.002 0 0.004 0 0.006 0h-0c1.892 0.066 3.574 0.915 4.74 2.232l0.006 0.007c1.248 1.307 2.030 3.069 2.074 5.013l0 0.008c0 0.009 0 0.019 0 0.029 0 1.754-0.789 3.324-2.031 4.375l-0.008 0.007c-1.261 1.052-2.898 1.69-4.685 1.69-0.034 0-0.068-0-0.101-0.001l0.005 0c-1.85-0.045-3.501-0.863-4.649-2.142l-0.005-0.006zM25.653 21.774c-0.87 0.803-1.413 1.949-1.413 3.222 0 0.012 0 0.024 0 0.036v-0.002c0.017 1.379 0.558 2.629 1.433 3.563l-0.003-0.003c0.831 0.928 2.023 1.519 3.353 1.551l0.006 0c0.021 0 0.047 0 0.072 0 1.289 0 2.47-0.462 3.387-1.228l-0.008 0.007c0.902-0.762 1.47-1.894 1.47-3.159 0-0.007-0-0.015-0-0.022v0.001c-0.029-1.409-0.593-2.681-1.496-3.627l0.002 0.002c-0.846-0.957-2.060-1.57-3.419-1.617l-0.008-0c-0.001 0-0.001 0-0.002 0-0.269 0-0.534 0.020-0.793 0.058l0.029-0.004 1.672 5.004-1.778 0.146-1.626-4.57c-0.333 0.189-0.621 0.401-0.881 0.641l0.003-0.003zM1.981 29.852c-1.208-1.289-1.958-3.021-1.981-4.928l-0-0.005c-0-0.014-0-0.031-0-0.048 0-1.763 0.753-3.351 1.955-4.458l0.004-0.004c1.211-1.098 2.826-1.771 4.598-1.771 0.028 0 0.056 0 0.083 0l-0.004-0c1.889 0.065 3.569 0.911 4.735 2.224l0.006 0.007 1.752-1.488 1.369 1.66-1.951 1.445c0.559 0.983 0.894 2.157 0.909 3.408l0 0.004c0 0.007 0 0.016 0 0.025 0 1.755-0.789 3.326-2.031 4.378l-0.008 0.007c-1.261 1.052-2.899 1.69-4.685 1.69-0.034 0-0.067-0-0.1-0.001l0.005 0c-1.851-0.045-3.501-0.863-4.648-2.142l-0.005-0.006zM3.285 21.774c-0.87 0.803-1.413 1.95-1.413 3.223 0 0.012 0 0.024 0 0.036v-0.002c0.017 1.38 0.558 2.63 1.433 3.563l-0.003-0.003c0.832 0.928 2.023 1.518 3.353 1.551l0.006 0c0.020 0 0.044 0 0.068 0 1.289 0 2.471-0.462 3.389-1.228l-0.008 0.007c0.579-0.491 1.018-1.129 1.261-1.858l0.008-0.029-6.521-0.633 5.15-4.371c-0.838-0.909-2.021-1.489-3.34-1.533l-0.008-0c-0.017-0-0.037-0-0.057-0-1.278 0-2.443 0.485-3.321 1.281l0.004-0.004zM8.993 25.121l2.533-0.095c-0.087-0.542-0.243-1.030-0.462-1.482l0.014 0.032zM19.64 5.651c-0.609-0.65-0.987-1.523-0.999-2.484l-0-0.002c-0-0.008-0-0.018-0-0.028 0-0.887 0.379-1.686 0.983-2.243l0.002-0.002c0.61-0.553 1.423-0.891 2.315-0.891 0.016 0 0.032 0 0.047 0l-0.002-0c0.953 0.033 1.801 0.46 2.389 1.124l0.003 0.004c0.63 0.659 1.024 1.548 1.044 2.528l0 0.004c0 0.004 0 0.010 0 0.015 0 0.883-0.397 1.674-1.023 2.203l-0.004 0.003c-0.635 0.53-1.459 0.851-2.359 0.851-0.018 0-0.036-0-0.053-0l0.003 0c-0.933-0.022-1.765-0.433-2.343-1.078l-0.003-0.003z"></path>
</symbol>
<symbol id="icon-run" viewBox="0 0 40 32">
<title>run</title>
<path d="M14.013 30.281l7.798-4.331-3.87-4.331-16.361 8.663-1.581-2.433 21.812-18.272-1.642-3.557-7.564-0.773-2.874-3.737h11.787l6.801 5.456 3.108 8.009 8.092 0.653-4.28 3.856h-6.567l-2.287-3.856-2.99 3.856 4.456 7.593-11.434 4.924zM31.846 7.459c-0.803-0.858-1.301-2.010-1.317-3.278l-0-0.003c-0-0.010-0-0.021-0-0.033 0-1.173 0.5-2.229 1.3-2.966l0.003-0.003c0.806-0.73 1.881-1.177 3.060-1.177 0.018 0 0.037 0 0.055 0l-0.003-0c1.259 0.043 2.378 0.608 3.153 1.484l0.004 0.005c0.831 0.87 1.351 2.043 1.379 3.337l0 0.005c0 0.006 0 0.012 0 0.019 0 1.167-0.525 2.211-1.351 2.91l-0.006 0.005c-0.838 0.7-1.927 1.125-3.115 1.125-0.023 0-0.046-0-0.069-0l0.003 0c-1.231-0.030-2.33-0.575-3.093-1.426l-0.004-0.004z"></path>
</symbol>
<symbol id="icon-swim" viewBox="0 0 47 32">
<title>swim</title>
<path d="M5.627 27.129l10.438 2.264 16.373-5.25 7.397 3.46-8.469-0.47-17.12 4.866zM0 17.652l16.083 5.319 18.872-5.89 12.031 9.372-13.615-5.51-17.793 6.777zM9.883 17.708l11.458-7.811-1.632-4.376-6.894 1.616-4.71-1.072 13.236-5.663 9.125 14.092-17.909 4.834zM30.703 7.528c-0.81-0.866-1.313-2.029-1.329-3.309l-0-0.003c-0-0.010-0-0.021-0-0.032 0-1.184 0.505-2.249 1.312-2.993l0.003-0.003c0.813-0.737 1.898-1.188 3.087-1.188 0.019 0 0.038 0 0.057 0l-0.003-0c1.27 0.044 2.4 0.613 3.183 1.497l0.004 0.005c0.837 0.879 1.361 2.062 1.389 3.368l0 0.006c0 0.006 0 0.013 0 0.020 0 1.178-0.53 2.232-1.365 2.937l-0.006 0.005c-0.844 0.705-1.941 1.133-3.138 1.133-0.024 0-0.048-0-0.073-0.001l0.004 0c-1.243-0.029-2.352-0.578-3.123-1.437l-0.004-0.004z"></path>
</symbol>
</defs>
</svg>
